HIERARCHY
ROOT Hips
{
	OFFSET 0.000000 0.000000 0.000000
	CHANNELS 6 Xposition Yposition Zposition Xrotation Yrotation Zrotation
	JOINT LeftUpLeg_virtual
	{
		OFFSET 0.000000 0.000000 0.000000
		CHANNELS 3 Xrotation Yrotation Zrotation
		JOINT LeftUpLeg
		{
			OFFSET 15.427100 -6.655098 0.678600
			CHANNELS 3 Xrotation Yrotation Zrotation
			JOINT LeftLeg
			{
				OFFSET 4.081073 -39.591068 13.024000
				CHANNELS 3 Xrotation Yrotation Zrotation
				JOINT LeftFoot
				{
					OFFSET -4.081074 -37.707932 -15.979700
					CHANNELS 3 Xrotation Yrotation Zrotation
					JOINT LeftToeBase
					{
						OFFSET 5.346399 -15.068900 20.645000
						CHANNELS 3 Xrotation Yrotation Zrotation
						JOINT LeftToe_End
						{
							OFFSET 2.754700 0.931300 11.300900
							CHANNELS 3 Xrotation Yrotation Zrotation
							End Site
							{
								OFFSET 0 0 0
							}
						}
					}
				}
			}
		}
	}
	JOINT RightUpLeg_virtual
	{
		OFFSET 0.000000 0.000000 0.000000
		CHANNELS 3 Xrotation Yrotation Zrotation
		JOINT RightUpLeg
		{
			OFFSET -15.569500 -6.655098 0.678600
			CHANNELS 3 Xrotation Yrotation Zrotation
			JOINT RightLeg
			{
				OFFSET -4.081825 -39.591045 13.023800
				CHANNELS 3 Xrotation Yrotation Zrotation
				JOINT RightFoot
				{
					OFFSET 4.081824 -37.707954 -15.979600
					CHANNELS 3 Xrotation Yrotation Zrotation
					JOINT RightToeBase
					{
						OFFSET -5.346400 -15.068900 20.645000
						CHANNELS 3 Xrotation Yrotation Zrotation
						JOINT RightToe_End
						{
							OFFSET -2.754700 0.931300 11.300900
							CHANNELS 3 Xrotation Yrotation Zrotation
							End Site
							{
								OFFSET 0 0 0
							}
						}
					}
				}
			}
		}
	}
	JOINT Spine_virtual
	{
		OFFSET 0.000000 0.000000 0.000000
		CHANNELS 3 Xrotation Yrotation Zrotation
		JOINT Spine
		{
			OFFSET -0.279200 12.230698 -2.892100
			CHANNELS 3 Xrotation Yrotation Zrotation
			JOINT Spine1
			{
				OFFSET -0.232667 10.192268 -1.242267
				CHANNELS 3 Xrotation Yrotation Zrotation
				JOINT Spine1_split
				{
					OFFSET -0.232667 10.192268 -1.242267
					CHANNELS 3 Xrotation Yrotation Zrotation
					JOINT Spine2
					{
						OFFSET -0.232667 10.192268 -1.242267
						CHANNELS 3 Xrotation Yrotation Zrotation
						JOINT Neck_virtual
						{
							OFFSET 0.000000 0.000000 0.000000
							CHANNELS 3 Xrotation Yrotation Zrotation
							JOINT Neck
							{
								OFFSET -0.418800 17.814194 8.416900
								CHANNELS 3 Xrotation Yrotation Zrotation
								JOINT Head
								{
									OFFSET 0.000000 7.031097 3.806800
									CHANNELS 3 Xrotation Yrotation Zrotation
									JOINT HeadTop_End
									{
										OFFSET 0.000000 24.646606 12.978600
										CHANNELS 3 Xrotation Yrotation Zrotation
										End Site
										{
											OFFSET 0 0 0
										}
									}
								}
							}
						}
						JOINT LeftShoulder_virtual
						{
							OFFSET 0.000000 0.000000 0.000000
							CHANNELS 3 Xrotation Yrotation Zrotation
							JOINT LeftShoulder
							{
								OFFSET 8.476499 7.247704 -3.868750
								CHANNELS 3 Xrotation Yrotation Zrotation
								JOINT LeftShoulder_split
								{
									OFFSET 8.476499 7.247704 -3.868750
									CHANNELS 3 Xrotation Yrotation Zrotation
									JOINT LeftArm
									{
										OFFSET 9.308998 -2.777710 0.208600
										CHANNELS 3 Xrotation Yrotation Zrotation
										JOINT LeftForeArm
										{
											OFFSET 29.972298 0.000000 0.000000
											CHANNELS 3 Xrotation Yrotation Zrotation
											JOINT LeftHand
											{
												OFFSET 26.026505 0.000000 0.000000
												CHANNELS 3 Xrotation Yrotation Zrotation
												End Site
												{
													OFFSET 0 0 0
												}
											}
										}
									}
								}
							}
						}
						JOINT RightShoulder_virtual
						{
							OFFSET 0.000000 0.000000 0.000000
							CHANNELS 3 Xrotation Yrotation Zrotation
							JOINT RightShoulder
							{
								OFFSET -7.570500 7.247704 -3.868750
								CHANNELS 3 Xrotation Yrotation Zrotation
								JOINT RightShoulder_split
								{
									OFFSET -7.570500 7.247704 -3.868750
									CHANNELS 3 Xrotation Yrotation Zrotation
									JOINT RightArm
									{
										OFFSET -9.308998 -2.777710 0.208500
										CHANNELS 3 Xrotation Yrotation Zrotation
										JOINT RightForeArm
										{
											OFFSET -29.972300 0.000000 0.000000
											CHANNELS 3 Xrotation Yrotation Zrotation
											JOINT RightHand
											{
												OFFSET -26.026505 0.000000 0.000000
												CHANNELS 3 Xrotation Yrotation Zrotation
												End Site
												{
													OFFSET 0 0 0
												}
											}
										}
									}
								}
							}
						}
					}
				}
			}
		}
	}
}
MOTION
Frames: 9
Frame Time: 0.03333333
-2.058414 77.958733 -5.303822 0.000000 0.000000 0.000000 12.990362 -60.462911 12.137019 -41.356642 21.039566 35.473031 39.537182 -16.052087 -9.148039 -6.777012 -0.030292 -17.368744 -4.522780 -3.393631 -5.122161 0.000000 0.000000 0.000000 11.729293 -57.071749 10.835890 -28.548131 -0.231828 -25.680951 46.668251 13.181007 -2.398970 -21.041557 -10.819127 32.269413 2.856391 6.060733 -7.513200 0.000000 0.000000 0.000000 2.654174 -48.835122 4.381192 6.558876 0.432777 -3.496332 8.251699 -3.746319 -1.065194 -0.086212 -0.020819 -0.136316 0.000000 0.000000 0.000000 11.502205 -0.752840 -0.364004 -13.249247 28.305347 -2.040061 28.930335 67.247256 -39.689843 0.000000 0.000000 0.000000 9.441882 -1.500310 -3.143470 2.528914 2.351961 -2.833323 -0.727946 -8.510475 0.698966 -40.787164 -5.144942 -28.280409 15.299813 -26.248526 12.825531 0.000000 0.000000 0.000000 14.172838 -0.295252 -1.691998 -12.325684 10.549885 -13.988524 6.511942 -2.286028 13.962390 -43.223582 -16.314938 40.230613 -155.573910 59.513399 150.415327 0.000000 0.000000 0.000000 
-1.893757 78.044510 -5.620419 0.000000 0.000000 0.000000 13.396456 -60.523440 12.702289 -40.628195 20.573382 34.673725 39.398164 -15.560581 -8.734609 -7.443953 0.753584 -16.277546 -4.352932 -3.449225 -5.518897 0.000000 0.000000 0.000000 11.934160 -57.257298 11.182241 -28.435111 -0.461015 -25.805539 46.461477 12.841102 -2.231694 -20.731648 -11.001516 31.523068 3.094588 6.057893 -7.152097 0.000000 0.000000 0.000000 2.961518 -49.413086 4.970038 6.803858 0.310504 -3.526716 8.002332 -4.060203 -1.105568 0.076750 -0.028929 -0.035040 0.000000 0.000000 0.000000 11.451738 -0.887423 -0.364472 -12.624234 27.984347 -2.393840 29.995841 66.631617 -40.190961 0.000000 0.000000 0.000000 9.342004 -1.716110 -2.970018 2.568980 2.112471 -3.225167 -1.062362 -8.270070 -0.536932 -41.311320 -4.908024 -29.375431 15.109261 -28.450058 12.923594 0.000000 0.000000 0.000000 14.046784 -0.577832 -1.575026 -11.342140 11.357826 -13.375871 8.112725 -2.163598 13.850118 -43.420920 -16.460133 39.086543 -155.401502 60.007283 150.686144 0.000000 0.000000 0.000000 
-1.835596 78.053978 -6.011543 0.000000 0.000000 0.000000 13.428925 -60.939166 13.379142 -39.104564 19.673783 33.434729 39.287962 -15.186758 -8.064965 -8.053689 1.886463 -15.791980 -3.951486 -3.585716 -5.780451 0.000000 0.000000 0.000000 11.974076 -57.891044 11.748311 -29.018735 -0.994880 -26.215705 46.606735 12.845562 -2.134763 -19.979294 -10.329458 31.626306 2.146916 6.197914 -7.683470 0.000000 0.000000 0.000000 3.498262 -50.086501 5.892098 7.535003 0.437718 -3.402965 7.604494 -4.254815 -1.173148 0.187797 -0.061506 0.046363 0.000000 0.000000 0.000000 11.153695 -0.855631 -0.432992 -12.261209 27.253044 -3.159715 29.599823 65.698743 -39.054059 0.000000 0.000000 0.000000 9.100559 -1.812286 -2.762315 2.485215 1.609389 -3.893487 -0.946351 -7.149680 -1.656084 -43.173096 -3.940855 -30.249614 15.842474 -29.374250 12.886076 0.000000 0.000000 0.000000 13.595200 -0.763432 -1.480802 -9.911277 12.483062 -12.026424 8.634724 -1.416591 13.337210 -43.199779 -15.010825 35.744422 -154.536076 60.983283 150.528203 0.000000 0.000000 0.000000 
-1.880905 77.904785 -6.302017 0.000000 0.000000 0.000000 12.954349 -61.697222 14.014886 -36.831829 18.694933 31.737263 39.290561 -14.869096 -7.266021 -8.772879 3.346026 -15.642740 -3.643323 -3.822225 -5.499436 0.000000 0.000000 0.000000 11.841660 -59.226312 12.579058 -30.236691 -1.609707 -26.867239 46.790716 13.165325 -2.214446 -19.601757 -8.937257 31.932214 1.440690 6.395469 -9.113964 0.000000 0.000000 0.000000 4.054626 -50.998932 7.096580 8.614442 0.876974 -3.113460 7.095029 -4.217410 -1.301005 0.209458 -0.084599 0.055789 0.000000 0.000000 0.000000 10.662853 -0.612991 -0.610824 -12.183208 26.157903 -4.247864 27.827369 64.543259 -36.320579 0.000000 0.000000 0.000000 8.786243 -1.722968 -2.603104 2.262161 0.737924 -4.849034 -0.869442 -5.743370 -2.378390 -45.271406 -2.620163 -30.418808 17.427716 -28.985178 12.705057 0.000000 0.000000 0.000000 12.902787 -0.777968 -1.495355 -8.145439 13.922223 -10.449920 8.297668 -0.826506 12.545255 -42.255201 -12.278277 30.447655 -152.417843 62.785995 149.221055 0.000000 0.000000 0.000000 
-1.995485 77.605362 -6.349613 0.000000 0.000000 0.000000 12.242382 -63.068341 14.789936 -33.961791 17.849265 29.695446 39.566794 -14.540074 -6.428659 -9.795594 5.282096 -15.672824 -3.221106 -4.116637 -4.665795 0.000000 0.000000 0.000000 11.733845 -61.301153 13.790049 -32.121174 -1.898043 -27.709179 46.999075 13.755160 -2.455336 -19.702246 -6.997332 32.106902 2.484447 6.494983 -11.334590 0.000000 0.000000 0.000000 4.322584 -52.376759 8.469788 9.931221 1.643959 -2.655053 6.518262 -3.907450 -1.465315 0.106551 -0.087462 0.073787 0.000000 0.000000 0.000000 10.088687 -0.201738 -0.897089 -12.433791 24.859723 -5.609026 24.768983 63.248016 -31.986998 0.000000 0.000000 0.000000 8.509968 -1.447068 -2.534455 1.938240 -0.600942 -6.022002 -0.993966 -3.924201 -3.049883 -46.413615 -1.770610 -29.975228 20.086961 -28.187736 12.567118 0.000000 0.000000 0.000000 12.119245 -0.584149 -1.628792 -6.218225 15.587853 -9.158948 7.714962 -0.727224 11.654330 -40.477337 -8.488652 23.755294 -148.201417 65.622484 145.790702 0.000000 0.000000 0.000000 
-2.243656 77.255989 -6.163685 0.000000 0.000000 0.000000 11.546655 -65.073780 15.803050 -30.393061 17.443634 27.263269 39.925143 -13.766588 -5.804351 -11.619310 7.785517 -15.045689 -2.605336 -4.424989 -3.533987 0.000000 0.000000 0.000000 11.756502 -63.879255 15.386463 -34.810623 -1.498351 -28.609086 47.439000 14.574915 -2.804401 -19.502376 -4.734801 32.675031 5.019915 6.352616 -14.086891 0.000000 0.000000 0.000000 4.182299 -54.460052 9.836937 11.264204 2.675542 -2.042893 5.992694 -3.373688 -1.609220 -0.016754 -0.050928 0.109528 0.000000 0.000000 0.000000 9.540587 0.327384 -1.245780 -12.765582 23.545399 -7.420791 20.625136 62.010727 -26.252546 0.000000 0.000000 0.000000 8.332085 -1.004211 -2.575705 1.517281 -2.341452 -7.321700 -1.305934 -2.665081 -3.517815 -45.363808 -1.665465 -29.079141 24.103579 -28.034095 12.897188 0.000000 0.000000 0.000000 11.402781 -0.202998 -1.835067 -4.242336 17.289277 -8.634541 7.467795 -1.257767 10.647482 -37.596814 -4.276039 16.652904 -139.837591 69.661851 138.138486 0.000000 0.000000 0.000000 
-2.571787 76.889053 -5.801388 0.000000 0.000000 0.000000 11.326553 -67.598341 17.278464 -26.497466 17.415347 24.831615 40.349520 -12.610776 -5.502417 -13.819266 10.550121 -14.113161 -1.938179 -4.669683 -2.384906 0.000000 0.000000 0.000000 12.137495 -66.691477 17.370836 -38.084213 -0.138052 -29.345040 48.118891 15.777657 -3.332881 -18.392769 -2.226954 34.261387 7.163460 6.089341 -17.055804 0.000000 0.000000 0.000000 3.421302 -57.134433 10.909614 12.474406 3.790112 -1.307372 5.670409 -2.733201 -1.661807 -0.100549 0.025489 0.155969 0.000000 0.000000 0.000000 9.215120 0.879392 -1.555174 -12.944201 22.398767 -9.495034 15.879961 61.127242 -19.942581 0.000000 0.000000 0.000000 8.335386 -0.507488 -2.654368 1.076043 -4.481566 -8.430069 -1.625920 -2.022135 -3.523968 -42.083302 -2.175360 -28.041862 29.464975 -28.750069 14.081669 0.000000 0.000000 0.000000 10.904735 0.280610 -1.978639 -2.329832 18.725884 -9.151164 8.326590 -2.244814 9.787929 -33.767110 -0.213903 10.118712 -123.832300 73.999895 122.704266 0.000000 0.000000 0.000000 
-2.890375 76.526741 -5.347157 0.000000 0.000000 0.000000 11.954039 -70.561742 19.385450 -22.694096 17.551168 22.731606 40.948548 -11.229532 -5.600207 -15.941496 13.054863 -13.025109 -1.866717 -4.880600 -1.434528 0.000000 0.000000 0.000000 13.121885 -69.382646 19.709547 -41.293425 2.078590 -29.448866 48.789247 17.207591 -4.193061 -16.862747 0.087179 36.518812 8.103472 5.882961 -19.931288 0.000000 0.000000 0.000000 2.204144 -60.333574 11.499141 13.512120 4.805289 -0.439919 5.631204 -2.123093 -1.494829 -0.072219 0.069588 0.159265 0.000000 0.000000 0.000000 9.216373 1.330217 -1.644171 -12.759620 21.503076 -11.637574 11.049276 61.131382 -13.960649 0.000000 0.000000 0.000000 8.525780 -0.094330 -2.624976 0.651232 -6.789140 -8.958722 -1.553982 -1.619875 -2.705871 -37.156250 -2.626621 -27.171201 36.393953 -30.771710 16.881690 0.000000 0.000000 0.000000 10.708370 0.738453 -1.938894 -0.637393 19.516110 -10.625547 9.262152 -3.141805 9.041582 -29.852066 3.493495 5.060776 -98.043978 76.612914 97.311071 0.000000 0.000000 0.000000 
-3.080147 76.168495 -4.724094 0.000000 0.000000 0.000000 13.345441 -73.584490 21.882179 -19.399180 17.785369 21.280788 41.805317 -9.617115 -6.155120 -17.936244 14.839511 -11.275001 -2.883407 -5.105488 -0.775700 0.000000 0.000000 0.000000 14.364866 -71.646622 21.903165 -43.806333 4.513797 -28.722950 49.475486 18.322985 -5.363056 -15.758356 1.487021 38.118657 9.427249 5.564785 -22.443694 0.000000 0.000000 0.000000 0.769398 -63.702360 11.508961 14.309920 5.507272 0.547436 5.885156 -1.682136 -1.079610 0.043049 0.123243 0.125783 0.000000 0.000000 0.000000 9.558642 1.603188 -1.400408 -12.173089 20.831934 -13.436987 5.728355 62.617194 -8.505966 0.000000 0.000000 0.000000 8.810727 0.158898 -2.399115 0.372880 -8.948581 -8.562289 -1.531161 -1.758037 -1.924708 -31.581873 -2.291865 -26.491100 45.121883 -33.699364 21.972155 0.000000 0.000000 0.000000 10.837763 1.029876 -1.636372 0.668592 19.306747 -12.745335 9.325614 -3.559913 8.465593 -26.439681 6.445792 2.132325 -70.100274 76.102569 69.459691 0.000000 0.000000 0.000000 
